inDegrees=yes
name=IK_Results.mot
DataType=double
version=3
OpenSimVersion=4.4-2022-08-12-dcf8e2cb1
endheader
time	TH_x	TH_y	TH_z	TH_transx	TH_transy	TH_transz	SC_y	SC_z	SC_x	AC_y	AC_z	AC_x	GH_y	GH_z	GH_yy	EL_x	PS_y
9.179999999999849	-342.3746449229448	-66.40280645727327	-176.3642743867264	0	0	0	-52.35622098990235	24.73487905851351	14.80807325375379	51.26144734970048	10.22266689045066	-10.82630433786622	54.89609811698742	-19.25436993700042	-40.12863238280293	5.381634322674671	89.96675744468901
9.189999999999849	-340.9926380351496	-65.06540073076393	-174.8156920213493	0	0	0	-51.73930908532662	22.28601973427156	15.2091562270099	51.03832685243722	8.697860200102948	-8.643569509410169	54.33014769377731	-18.11088696729793	-39.6391569300532	2.079287673475124	90.22419800392824
9.199999999999848	-342.3565338254898	-64.69977072457947	-176.4866074397123	0	0	0	-50.39839592255731	22.55830758174216	14.91703384204405	51.81309808332229	6.843278390200552	-8.940513029766487	54.03312697973411	-17.37593970018866	-36.8443470756584	1.230071397933346	90.32739646192816
9.209999999999848	-341.9490787253571	-65.32761252249699	-176.0635366172977	0	0	0	-50.0987165180124	21.65394558291818	15.24340068502364	51.66891551639771	6.287594968937795	-8.055411934178911	53.69248458348762	-16.70002016514904	-36.57719415971366	1.065670038169973	90.52622768803108
9.219999999999848	-342.6552561272616	-64.63991606956201	-177.117287130662	0	0	0	-50.48099487351981	20.19529661462643	15.95955820503113	50.49045062224051	5.671478582420423	-6.731517065607163	51.62847964507576	-15.65768491913846	-37.61127104558712	1.041840204416744	90.64410221740326
9.229999999999848	-343.650374762805	-66.23272151994817	-178.2084165592651	0	0	0	-50.51006728362555	19.40048016826499	16.06258191359853	50.03148920848864	4.812003088511342	-6.123355834757503	50.69015250986367	-15.13743112892121	-37.57302872256477	1.184563185974415	90.36037038280347
9.239999999999847	-345.0739052350849	-67.11171160968502	-178.6398875669069	0	0	0	-49.78127206935561	18.73515793490514	16.31471730779243	50.06436458979517	3.275629661372697	-5.189755593802851	49.40005280236401	-13.83337915211914	-36.62314223693908	7.565376998193838	89.8090607213252
9.249999999999847	-346.108903741677	-67.15100916031676	-179.5015574235443	0	0	0	-49.47394706069792	18.05020365971859	17.59722490428927	49.56240707517172	3.285653189885623	-3.852619444018781	48.03391911734232	-12.10733793357049	-36.94266992811984	7.971180337587807	89.77244933658679
9.259999999999847	-350.1145764398997	-68.3944799962343	-181.6514633397289	0	0	0	-49.894906250932	18.23421055857289	17.25059254488276	49.07796060153353	2.566860022922868	-4.216144315136534	46.35283597289325	-11.98373514538758	-37.53190777979065	11.9810463146468	89.48423532429301
9.269999999999847	-346.884836864025	-68.41035158428927	-178.8378280527124	0	0	0	-49.50216892802629	16.90582160536489	17.33924575792114	48.92151548358405	1.338045595279814	-3.030926853592317	45.76524638084659	-11.50862969879992	-37.23799660625712	14.06313480580591	89.33149652353248
9.279999999999847	-345.6090921771386	-67.99240034268919	-177.9111677890034	0	0	0	-49.20754843374706	16.07613697801643	17.56662547543326	48.66956178170923	0.3351819904331777	-2.14383075642487	44.42705562583404	-10.70501835081464	-37.13819099722403	16.90255336932669	89.1212636259731
9.289999999999846	-345.342857611852	-67.61601988591086	-177.9300934101665	0	0	0	-48.73491686801828	15.60112461950681	17.446290961899	48.81676291334139	-0.7221633425527797	-1.637297602333613	43.87413477684072	-10.36678841503872	-36.61517803213902	19.97352093825641	88.91189600212898
9.299999999999846	-343.4726615811063	-66.84625248586457	-175.5769130297209	0	0	0	-48.13497577838071	13.69036122733286	17.52836478700877	48.75371970340546	-2.086519892201805	-0.006224056893101867	43.83093249919103	-10.18414874313454	-36.28795187790126	17.19118860102726	89.10415817509032
9.309999999999846	-343.4115016391086	-67.43678607149626	-176.7884841032477	0	0	0	-47.24788857422401	13.34063421152116	18.21178450453795	49.17618645011194	-2.29287563455334	0.9795628332685919	44.19119935048383	-9.281952168995099	-35.46265998044885	15.63246178365125	89.2205239189831
9.319999999999846	-345.4278060622438	-71.38434153485689	-177.7395101376488	0	0	0	-46.47097290425529	13.87800744644836	17.7089841930449	49.90003651232554	-3.016005495531365	0.5626957957255451	45.10978319268359	-9.46862222896589	-33.93645268807192	18.10366591437343	89.04176305393463
9.329999999999846	-346.3119361535203	-72.3315703787398	-179.126478024686	0	0	0	-46.1551476945377	13.52377550775556	17.52466177953938	50.01563682624854	-3.670356120903747	0.8804495088830194	45.16708703506752	-9.497926611769859	-33.52838721094571	16.89271502288863	89.10563251801689
9.339999999999845	-344.2259934371584	-76.23261314740554	-177.788111229722	0	0	0	-46.44057969983902	14.08763381457882	17.48565691907205	49.6151765741732	-3.843071503184576	0.5563400318645422	44.60224742120549	-9.140548482097929	-33.33588225672471	19.84980612623793	88.92582272819546
9.349999999999845	-344.5359730616524	-77.05777608302573	-177.6404626395506	0	0	0	-45.96358720524741	13.09277953096099	17.64652429039565	49.71762376069011	-4.500477607395903	1.498318014586201	44.80042054811859	-8.857869683371939	-32.84674073335534	15.68610473448732	89.20896646527547
9.359999999999845	-347.2691384920525	-77.61948655112737	-181.1573642217166	0	0	0	-46.20192754653604	12.18007882420885	17.69336691920286	49.01379841904942	-5.379942591429377	2.459141521556664	43.76659219375824	-8.572492328538976	-33.3977210160265	12.65048026062368	89.4337592641231
9.369999999999845	-344.4659101577229	-77.69335019977646	-177.9597155967297	0	0	0	-46.33093973957961	11.24481360457971	17.75376615240042	48.43828043234279	-6.246219643211299	3.425091835477715	43.01995628288169	-8.338587795352925	-33.74015988771498	10.54189653307193	89.56448408394903
9.379999999999844	-342.6024187803744	-78.05297551493095	-176.2470595731913	0	0	0	-46.16303313938871	11.66547021811114	17.77423543265333	48.46997647783326	-6.489900203996177	3.410982205614921	42.76786954296335	-8.07371923522758	-33.46086688781129	12.57752204816824	89.44262578930565
9.389999999999844	-340.9647366796785	-78.4828905806263	-174.4743752957971	0	0	0	-45.60879642816253	11.59609501141802	17.63487676607436	48.78216070696266	-7.188508892170842	3.718471519277727	42.91707179501977	-8.087788927095133	-32.84519738991209	13.59816146574352	89.36741592707976
9.399999999999844	-337.4356972148402	-78.68496405258043	-172.4369821358194	0	0	0	-45.69868237467931	11.53009376519847	18.1743668579843	48.35418314713324	-7.284322110100103	4.388085910404396	42.03996589774151	-7.254429052525225	-33.15693342205382	14.6806383998764	89.28886091728998
9.409999999999844	-337.4421146344603	-78.69856613470152	-172.4337753947262	0	0	0	-45.6861646575336	11.49858088325636	18.17028148366477	48.3522837673135	-7.319836549981446	4.416770226517626	42.03402242164022	-7.255594442947168	-33.15064450067879	14.72100577616982	89.28311302864478
9.419999999999844	-337.4284889651616	-78.67713635952227	-172.4379028551148	0	0	0	-45.64123084050326	11.602980609856	18.16287499243255	48.36623198736071	-7.394834708468684	4.413555480690454	41.94461930388602	-7.223647069838186	-33.12151927424202	14.72716303048016	89.28408713318214
9.429999999999843	-336.7800736756775	-78.89157217836241	-171.7401691322186	0	0	0	-45.80109749765984	11.71998271826802	18.11237861748722	48.06653191966567	-7.727399924918277	4.532238973140372	41.30912306648279	-7.120952637467471	-33.40676711640508	15.10690322588255	89.26966265280379
9.439999999999843	-335.9721337839152	-78.61544442033853	-170.7373846046991	0	0	0	-45.6700889914985	11.80225313227083	18.00397980193051	48.11785127522056	-8.029852633776503	4.573017482481568	41.13270162017818	-7.184353613386861	-33.34471012451329	15.6679485430299	89.21788659691292
9.449999999999843	-341.6721662093455	-76.85865100349639	-174.994479562051	0	0	0	-45.19760107065157	11.7869960908247	17.4057660302365	48.53153937835098	-8.925691823258228	4.49408380976704	40.85176988726287	-7.829266057632827	-33.22029717394084	17.4066524745261	89.09000754293955
9.459999999999843	-343.3660437576975	-76.16685407968525	-176.6170356074173	0	0	0	-44.86663911369587	11.99685299140233	17.50824084812702	48.72113853151203	-9.106742596885523	4.703799203575707	40.85076501002497	-7.70675849891153	-32.97059227064114	16.0531742783999	89.17600507239069
9.469999999999843	-343.3868008421198	-76.16191437853011	-176.6223306255877	0	0	0	-44.84215188246754	12.01984202939343	17.51418142137568	48.73277779682197	-9.13292786519221	4.71047065749354	40.79585613400364	-7.679984318323845	-32.95556729682003	16.05085757866794	89.18636360400522
9.479999999999842	-341.5707272726526	-75.86401217347486	-175.9845521015791	0	0	0	-43.5779896916756	12.55744664639953	18.21130909506791	49.83884210199063	-8.629619830545534	4.872820285833301	41.99160240374203	-7.045984874010415	-31.50184420171563	14.56869717826416	89.29317805284559
9.489999999999842	-341.5481692355034	-75.86243900456783	-175.9591760042077	0	0	0	-43.56820415366858	12.64627549018232	18.30464695516743	49.85241282885044	-8.508383314876273	4.86444614848039	42.0125550268947	-6.951738887450145	-31.4842204225233	14.72995033249739	89.28628727065363
9.499999999999842	-347.6830513464763	-70.90023017718696	-180.0485628903137	0	0	0	-41.88562239491127	11.84374833323181	17.88174206897732	50.95434121723486	-10.00882732929263	5.436607960429462	43.29130964160174	-7.1098815289243	-29.21637679559062	13.24510574217024	89.38839150393456
9.509999999999842	-346.2796256388191	-69.66807421028174	-178.4794535555143	0	0	0	-42.13755819083232	10.33294680867737	18.0292778829543	50.10785394672373	-10.9587783679033	6.889857902277261	42.25178757796539	-6.660395213085733	-29.88116804571241	11.38865111196448	89.52304159496035
9.519999999999841	-339.4230373091225	-71.92965203646874	-172.6063470908671	0	0	0	-40.42056057773905	10.0362918037029	19.79881204922286	51.04930529211102	-10.34415475259733	8.422201223124809	43.99319980177687	-4.833241258021522	-27.75643898144626	9.307367823568923	89.66563801682577
9.529999999999841	-337.8521548832615	-70.81512898362962	-172.8277992907768	0	0	0	-40.33084197464803	9.614673401559003	20.5949159203822	50.6923555679356	-10.20571290916949	9.407536916642874	43.48839556065542	-3.839133703204148	-28.0903705945759	4.752797623702274	90.01242403734582
9.539999999999841	-330.7482280259853	-73.50585531462805	-165.2326388271485	0	0	0	-38.96146011905356	9.226930524996485	21.5435917863092	51.33447512597981	-10.36105948831393	10.56309242143639	44.94469913969491	-2.638833631464859	-26.18385962294973	1.673766370917938	90.27830627576468
9.549999999999841	-331.0998034427316	-74.38201469103481	-165.0399348701265	0	0	0	-38.60139606735098	8.520567303696774	21.73085172814989	51.28294141974945	-10.82156645762521	11.30150946990874	44.93537895411216	-2.258712035461393	-26.04651168057539	1.172046679351345	90.36545949110942
9.559999999999841	-333.3245926841793	-71.34333178285388	-166.0182299964178	0	0	0	-35.49965177266812	7.974081105226332	23.30243251445327	53.13283953348117	-11.30393266327115	13.27582407934091	47.30872446770986	-0.713257794731222	-23.47861180995391	1.964871385498698	90.22342324410894
9.56999999999984	-332.728105270315	-72.20187748816726	-167.230082992485	0	0	0	-35.13652753873228	7.90435249857277	24.19994748910143	53.10037965749115	-10.93863172892265	13.80596935719651	47.45147346641424	0.5896406367183255	-23.06394864779475	1.43084579282683	90.29384777657825
9.57999999999984	-334.3167657898557	-72.87871252430901	-165.4936167684452	0	0	0	-27.98963247227199	9.617027209919913	18.51217500633728	52.4093013366604	-15.75512359267029	11.45525971580895	48.28265474963772	12.22339454145445	-22.9017623392585	1.113112589587505	90.42679521300593
9.58999999999984	-332.2675465313831	-74.87693912390645	-164.501494948272	0	0	0	-27.07611488990862	10.02978574932088	20.36695240638189	53.42109963216598	-14.37555621415109	11.93319166697104	50.29417881187558	13.88371614087302	-20.90626181429312	1.019711443168984	91.12593714221357
